<svg width="28" height="28" viewBox="0 0 28 28" fill="none" xmlns="http://www.w3.org/2000/svg">
<mask id="path-1-inside-1_136_952" fill="white">
<path fill-rule="evenodd" clip-rule="evenodd" d="M14.5236 7.38007C14.192 7.04853 13.6545 7.04852 13.323 7.38006C12.9914 7.71159 12.9914 8.24912 13.323 8.58066L17.4764 12.7342L6.47335 12.7342C6.00448 12.7342 5.62439 13.1143 5.62439 13.5832C5.62439 14.0521 6.00448 14.4322 6.47335 14.4322L17.4765 14.4322L13.323 18.5857C12.9914 18.9173 12.9914 19.4548 13.323 19.7864C13.6545 20.1179 14.192 20.1179 14.5236 19.7864L20.1263 14.1836C20.4579 13.852 20.4579 13.3145 20.1264 12.983L14.5236 7.38007Z"/>
</mask>
<path fill-rule="evenodd" clip-rule="evenodd" d="M14.5236 7.38007C14.192 7.04853 13.6545 7.04852 13.323 7.38006C12.9914 7.71159 12.9914 8.24912 13.323 8.58066L17.4764 12.7342L6.47335 12.7342C6.00448 12.7342 5.62439 13.1143 5.62439 13.5832C5.62439 14.0521 6.00448 14.4322 6.47335 14.4322L17.4765 14.4322L13.323 18.5857C12.9914 18.9173 12.9914 19.4548 13.323 19.7864C13.6545 20.1179 14.192 20.1179 14.5236 19.7864L20.1263 14.1836C20.4579 13.852 20.4579 13.3145 20.1264 12.983L14.5236 7.38007Z" fill="#9F9F9D" fill-opacity="0.8"/>
<path d="M13.323 7.38006L14.1234 8.18047L13.323 7.38006ZM14.5236 7.38007L13.7232 8.18047V8.18047L14.5236 7.38007ZM13.323 8.58066L14.1234 7.78027L13.323 8.58066ZM17.4764 12.7342L18.2769 11.9339L20.2092 13.8662H17.4764V12.7342ZM6.47335 14.4322V13.3002V14.4322ZM17.4765 14.4322V13.3002H20.2093L18.2769 15.2326L17.4765 14.4322ZM13.323 18.5857L12.5226 17.7853L12.5226 17.7853L13.323 18.5857ZM13.323 19.7864L12.5226 20.5868L12.5226 20.5868L13.323 19.7864ZM14.5236 19.7864L15.324 20.5868L14.5236 19.7864ZM20.1263 14.1836L19.3259 13.3832L20.1263 14.1836ZM20.1264 12.983L19.3259 13.7834L19.3259 13.7834L20.1264 12.983ZM12.5226 6.57964C13.2962 5.80606 14.5504 5.80607 15.324 6.57967L13.7232 8.18047C13.8337 8.29098 14.0129 8.29098 14.1234 8.18047L12.5226 6.57964ZM12.5225 9.38106C11.749 8.60746 11.749 7.35322 12.5226 6.57964L14.1234 8.18047C14.2339 8.06996 14.2339 7.89078 14.1234 7.78027L12.5225 9.38106ZM16.676 13.5346L12.5225 9.38106L14.1234 7.78027L18.2769 11.9339L16.676 13.5346ZM17.4764 13.8662L6.47335 13.8662L6.47335 11.6023L17.4764 11.6023V13.8662ZM6.47335 13.8662C6.62964 13.8662 6.75634 13.7395 6.75634 13.5832L4.49245 13.5832C4.49245 12.4892 5.37932 11.6023 6.47335 11.6023L6.47335 13.8662ZM6.75634 13.5832C6.75634 13.4269 6.62964 13.3002 6.47335 13.3002V15.5641C5.37933 15.5641 4.49245 14.6772 4.49245 13.5832L6.75634 13.5832ZM6.47335 13.3002L17.4765 13.3002V15.5641L6.47335 15.5641V13.3002ZM12.5226 17.7853L16.6761 13.6318L18.2769 15.2326L14.1234 19.3862L12.5226 17.7853ZM12.5226 20.5868C11.749 19.8132 11.749 18.5589 12.5226 17.7853L14.1234 19.3861C14.2339 19.2756 14.2339 19.0965 14.1234 18.9859L12.5226 20.5868ZM15.324 20.5868C14.5504 21.3604 13.2961 21.3603 12.5226 20.5868L14.1234 18.9859C14.0129 18.8754 13.8337 18.8754 13.7232 18.9859L15.324 20.5868ZM20.9268 14.984L15.324 20.5868L13.7232 18.9859L19.3259 13.3832L20.9268 14.984ZM20.9268 12.1826C21.7003 12.9562 21.7003 14.2104 20.9268 14.984L19.3259 13.3832C19.2154 13.4937 19.2154 13.6729 19.3259 13.7834L20.9268 12.1826ZM15.324 6.57967L20.9268 12.1826L19.3259 13.7834L13.7232 8.18047L15.324 6.57967Z" fill="#9F9F9D" fill-opacity="0.8" mask="url(#path-1-inside-1_136_952)"/>
</svg>
