<svg width="28" height="28" viewBox="0 0 28 28" fill="none" xmlns="http://www.w3.org/2000/svg">
<mask id="path-1-inside-1_136_924" fill="white">
<path fill-rule="evenodd" clip-rule="evenodd" d="M12.6432 19.7866C12.9747 20.1182 13.5122 20.1182 13.8438 19.7866C14.1753 19.4551 14.1753 18.9176 13.8438 18.586L9.69031 14.4324L20.6934 14.4324C21.1623 14.4324 21.5424 14.0523 21.5424 13.5835C21.5424 13.1146 21.1623 12.7345 20.6934 12.7345L9.69021 12.7345L13.8438 8.58094C14.1753 8.2494 14.1753 7.71187 13.8438 7.38033C13.5122 7.0488 12.9747 7.04879 12.6432 7.38033L7.0404 12.9831C6.70887 13.3146 6.70886 13.8522 7.0404 14.1837L12.6432 19.7866Z"/>
</mask>
<path fill-rule="evenodd" clip-rule="evenodd" d="M12.6432 19.7866C12.9747 20.1182 13.5122 20.1182 13.8438 19.7866C14.1753 19.4551 14.1753 18.9176 13.8438 18.586L9.69031 14.4324L20.6934 14.4324C21.1623 14.4324 21.5424 14.0523 21.5424 13.5835C21.5424 13.1146 21.1623 12.7345 20.6934 12.7345L9.69021 12.7345L13.8438 8.58094C14.1753 8.2494 14.1753 7.71187 13.8438 7.38033C13.5122 7.0488 12.9747 7.04879 12.6432 7.38033L7.0404 12.9831C6.70887 13.3146 6.70886 13.8522 7.0404 14.1837L12.6432 19.7866Z" fill="#9F9F9D" fill-opacity="0.8"/>
<path d="M13.8438 19.7866L13.0434 18.9862L13.8438 19.7866ZM12.6432 19.7866L13.4436 18.9862V18.9862L12.6432 19.7866ZM13.8438 18.586L13.0434 19.3864L13.8438 18.586ZM9.69031 14.4324L8.88989 15.2328L6.95759 13.3005H9.69031V14.4324ZM20.6934 12.7345V13.8665V12.7345ZM9.69021 12.7345V13.8665H6.95745L8.8898 11.9341L9.69021 12.7345ZM13.8438 8.58094L14.6442 9.38135L14.6442 9.38135L13.8438 8.58094ZM13.8438 7.38033L14.6442 6.57993L14.6442 6.57993L13.8438 7.38033ZM12.6432 7.38033L11.8428 6.57993L12.6432 7.38033ZM7.0404 12.9831L7.84081 13.7835L7.0404 12.9831ZM7.0404 14.1837L7.84081 13.3833L7.84081 13.3833L7.0404 14.1837ZM14.6442 20.587C13.8706 21.3606 12.6163 21.3606 11.8428 20.587L13.4436 18.9862C13.3331 18.8757 13.1539 18.8757 13.0434 18.9862L14.6442 20.587ZM14.6442 17.7856C15.4178 18.5592 15.4178 19.8135 14.6442 20.587L13.0434 18.9862C12.9329 19.0967 12.9329 19.2759 13.0434 19.3864L14.6442 17.7856ZM10.4907 13.632L14.6442 17.7856L13.0434 19.3864L8.88989 15.2328L10.4907 13.632ZM9.69031 13.3005L20.6934 13.3005V15.5644L9.69031 15.5644V13.3005ZM20.6934 13.3005C20.5371 13.3005 20.4104 13.4272 20.4104 13.5835H22.6743C22.6743 14.6775 21.7874 15.5644 20.6934 15.5644V13.3005ZM20.4104 13.5835C20.4104 13.7398 20.5371 13.8665 20.6934 13.8665V11.6026C21.7874 11.6026 22.6743 12.4895 22.6743 13.5835H20.4104ZM20.6934 13.8665L9.69021 13.8665V11.6026L20.6934 11.6026V13.8665ZM14.6442 9.38135L10.4906 13.5349L8.8898 11.9341L13.0434 7.78054L14.6442 9.38135ZM14.6442 6.57993C15.4178 7.35352 15.4178 8.60776 14.6442 9.38135L13.0434 7.78054C12.9329 7.89105 12.9329 8.07023 13.0434 8.18074L14.6442 6.57993ZM11.8428 6.57993C12.6164 5.80634 13.8706 5.80634 14.6442 6.57993L13.0434 8.18074C13.1539 8.29125 13.3331 8.29125 13.4436 8.18074L11.8428 6.57993ZM6.24 12.1827L11.8428 6.57993L13.4436 8.18074L7.84081 13.7835L6.24 12.1827ZM6.23998 14.9841C5.4664 14.2105 5.46641 12.9563 6.24 12.1827L7.84081 13.7835C7.95132 13.673 7.95132 13.4938 7.84081 13.3833L6.23998 14.9841ZM11.8428 20.587L6.23998 14.9841L7.84081 13.3833L13.4436 18.9862L11.8428 20.587Z" fill="#9F9F9D" fill-opacity="0.8" mask="url(#path-1-inside-1_136_924)"/>
</svg>
