<svg width="35" height="32" viewBox="0 0 35 32" fill="none" xmlns="http://www.w3.org/2000/svg">
<g clip-path="url(#clip0_91_1918)">
<mask id="path-1-inside-1_91_1918" fill="white">
<path fill-rule="evenodd" clip-rule="evenodd" d="M8.19521 23.9672C7.68753 24.4748 7.68753 25.298 8.19521 25.8056C8.7029 26.3133 9.52601 26.3133 10.0337 25.8056L18.0003 17.839L25.9672 25.8058C26.4748 26.3135 27.298 26.3135 27.8056 25.8058C28.3133 25.2982 28.3133 24.475 27.8056 23.9674L19.8388 16.0005L27.8056 8.03369C28.3133 7.52601 28.3133 6.7029 27.8056 6.19521C27.298 5.68753 26.4748 5.68753 25.9672 6.19521L18.0003 14.1621L10.0337 6.19542C9.52601 5.68774 8.7029 5.68774 8.19521 6.19542C7.68753 6.7031 7.68753 7.52622 8.19521 8.0339L16.1618 16.0005L8.19521 23.9672Z"/>
</mask>
<path fill-rule="evenodd" clip-rule="evenodd" d="M8.19521 23.9672C7.68753 24.4748 7.68753 25.298 8.19521 25.8056C8.7029 26.3133 9.52601 26.3133 10.0337 25.8056L18.0003 17.839L25.9672 25.8058C26.4748 26.3135 27.298 26.3135 27.8056 25.8058C28.3133 25.2982 28.3133 24.475 27.8056 23.9674L19.8388 16.0005L27.8056 8.03369C28.3133 7.52601 28.3133 6.7029 27.8056 6.19521C27.298 5.68753 26.4748 5.68753 25.9672 6.19521L18.0003 14.1621L10.0337 6.19542C9.52601 5.68774 8.7029 5.68774 8.19521 6.19542C7.68753 6.7031 7.68753 7.52622 8.19521 8.0339L16.1618 16.0005L8.19521 23.9672Z" fill="#9F9F9D"/>
<path d="M8.19521 25.8056L6.96956 27.0313H6.96956L8.19521 25.8056ZM8.19521 23.9672L9.42087 25.1928L9.42087 25.1928L8.19521 23.9672ZM10.0337 25.8056L11.2593 27.0313L11.2593 27.0313L10.0337 25.8056ZM18.0003 17.839L19.226 16.6134L18.0003 15.3877L16.7747 16.6134L18.0003 17.839ZM27.8056 25.8058L26.58 24.5802L26.58 24.5802L27.8056 25.8058ZM27.8056 23.9674L26.58 25.193L26.58 25.193L27.8056 23.9674ZM19.8388 16.0005L18.6132 14.7749L17.3875 16.0005L18.6131 17.2262L19.8388 16.0005ZM27.8056 8.03369L26.58 6.80804L26.58 6.80804L27.8056 8.03369ZM27.8056 6.19521L29.0313 4.96956L27.8056 6.19521ZM25.9672 6.19521L27.1928 7.42087V7.42087L25.9672 6.19521ZM18.0003 14.1621L16.7747 15.3877L18.0003 16.6134L19.226 15.3877L18.0003 14.1621ZM10.0337 6.19542L11.2593 4.96977L11.2593 4.96977L10.0337 6.19542ZM8.19521 6.19542L6.96956 4.96977L6.96956 4.96977L8.19521 6.19542ZM8.19521 8.0339L9.42087 6.80825L8.19521 8.0339ZM16.1618 16.0005L17.3875 17.2262L18.6132 16.0005L17.3875 14.7749L16.1618 16.0005ZM9.42087 24.58C9.59009 24.7492 9.59009 25.0236 9.42087 25.1928L6.96956 22.7415C5.78497 23.9261 5.78497 25.8467 6.96956 27.0313L9.42087 24.58ZM8.80804 24.58C8.97727 24.4108 9.25164 24.4108 9.42087 24.58L6.96956 27.0313C8.15415 28.2159 10.0748 28.2159 11.2593 27.0313L8.80804 24.58ZM16.7747 16.6134L8.80804 24.58L11.2593 27.0313L19.226 19.0647L16.7747 16.6134ZM27.1928 24.5802L19.226 16.6134L16.7747 19.0647L24.7415 27.0315L27.1928 24.5802ZM26.58 24.5802C26.7492 24.411 27.0236 24.411 27.1928 24.5802L24.7415 27.0315C25.9261 28.2161 27.8467 28.2161 29.0313 27.0315L26.58 24.5802ZM26.58 25.193C26.4108 25.0238 26.4108 24.7494 26.58 24.5802L29.0313 27.0315C30.2159 25.8469 30.2159 23.9263 29.0313 22.7417L26.58 25.193ZM18.6131 17.2262L26.58 25.193L29.0313 22.7417L21.0645 14.7749L18.6131 17.2262ZM26.58 6.80804L18.6132 14.7749L21.0645 17.2262L29.0313 9.25934L26.58 6.80804ZM26.58 7.42087C26.4108 7.25164 26.4108 6.97727 26.58 6.80804L29.0313 9.25935C30.2159 8.07475 30.2159 6.15415 29.0313 4.96956L26.58 7.42087ZM27.1928 7.42087C27.0236 7.59009 26.7492 7.59009 26.58 7.42087L29.0313 4.96956C27.8467 3.78497 25.9261 3.78497 24.7415 4.96956L27.1928 7.42087ZM19.226 15.3877L27.1928 7.42087L24.7415 4.96956L16.7747 12.9364L19.226 15.3877ZM8.80804 7.42107L16.7747 15.3877L19.226 12.9364L11.2593 4.96977L8.80804 7.42107ZM9.42087 7.42107C9.25164 7.5903 8.97727 7.5903 8.80804 7.42107L11.2593 4.96977C10.0748 3.78518 8.15415 3.78518 6.96956 4.96977L9.42087 7.42107ZM9.42087 6.80825C9.59009 6.97747 9.59009 7.25184 9.42087 7.42107L6.96956 4.96977C5.78497 6.15436 5.78497 8.07496 6.96956 9.25955L9.42087 6.80825ZM17.3875 14.7749L9.42087 6.80825L6.96956 9.25955L14.9362 17.2262L17.3875 14.7749ZM9.42087 25.1928L17.3875 17.2262L14.9362 14.7749L6.96956 22.7415L9.42087 25.1928Z" fill="#9F9F9D" mask="url(#path-1-inside-1_91_1918)"/>
</g>
<defs>
<clipPath id="clip0_91_1918">
<rect width="35" height="32" fill="white"/>
</clipPath>
</defs>
</svg>
