<svg width="42" height="42" viewBox="0 0 42 42" fill="none" xmlns="http://www.w3.org/2000/svg">
<g clip-path="url(#clip0_38_647)">
<mask id="path-1-inside-1_38_647" fill="white">
<path fill-rule="evenodd" clip-rule="evenodd" d="M30.7047 22.1911C31.2646 21.6313 31.2646 20.7236 30.7048 20.1638C30.1449 19.6039 29.2373 19.6039 28.6774 20.1638L21.6637 27.1773V8.59758C21.6637 7.80585 21.0219 7.16403 20.2302 7.16403C19.4385 7.16403 18.7966 7.80585 18.7966 8.59758V27.1775L11.7829 20.1638C11.2231 19.6039 10.3154 19.6039 9.75561 20.1638C9.19578 20.7236 9.19578 21.6313 9.75561 22.1911L19.2164 31.6519C19.7762 32.2117 20.6839 32.2117 21.2437 31.6519L30.7047 22.1911Z"/>
</mask>
<path fill-rule="evenodd" clip-rule="evenodd" d="M30.7047 22.1911C31.2646 21.6313 31.2646 20.7236 30.7048 20.1638C30.1449 19.6039 29.2373 19.6039 28.6774 20.1638L21.6637 27.1773V8.59758C21.6637 7.80585 21.0219 7.16403 20.2302 7.16403C19.4385 7.16403 18.7966 7.80585 18.7966 8.59758V27.1775L11.7829 20.1638C11.2231 19.6039 10.3154 19.6039 9.75561 20.1638C9.19578 20.7236 9.19578 21.6313 9.75561 22.1911L19.2164 31.6519C19.7762 32.2117 20.6839 32.2117 21.2437 31.6519L30.7047 22.1911Z" fill="#9F9F9D" fill-opacity="0.8"/>
<path d="M30.7048 20.1638L32.0563 18.8122H32.0563L30.7048 20.1638ZM30.7047 22.1911L32.0563 23.5427L32.0563 23.5427L30.7047 22.1911ZM28.6774 20.1638L27.3259 18.8122L27.3259 18.8122L28.6774 20.1638ZM21.6637 27.1773L23.0153 28.5289L19.7523 31.7917V27.1773H21.6637ZM18.7966 27.1775H20.708V31.792L17.4451 28.529L18.7966 27.1775ZM11.7829 20.1638L10.4314 21.5153L11.7829 20.1638ZM9.75561 20.1638L8.40405 18.8122V18.8122L9.75561 20.1638ZM9.75561 22.1911L11.1072 20.8395L9.75561 22.1911ZM19.2164 31.6519L20.568 30.3003V30.3003L19.2164 31.6519ZM21.2437 31.6519L22.5953 33.0035V33.0035L21.2437 31.6519ZM32.0563 18.8122C33.3626 20.1185 33.3626 22.2364 32.0563 23.5427L29.3532 20.8395C29.1666 21.0262 29.1666 21.3287 29.3532 21.5153L32.0563 18.8122ZM27.3259 18.8122C28.6322 17.5059 30.7501 17.5059 32.0563 18.8122L29.3532 21.5153C29.5398 21.7019 29.8424 21.7019 30.029 21.5153L27.3259 18.8122ZM20.3122 25.8257L27.3259 18.8122L30.029 21.5153L23.0153 28.5289L20.3122 25.8257ZM19.7523 27.1773V8.59758H23.5751V27.1773H19.7523ZM19.7523 8.59758C19.7523 8.86149 19.9663 9.07543 20.2302 9.07543V5.25264C22.0775 5.25264 23.5751 6.75022 23.5751 8.59758H19.7523ZM20.2302 9.07543C20.4941 9.07543 20.708 8.86149 20.708 8.59758H16.8852C16.8852 6.75022 18.3828 5.25264 20.2302 5.25264V9.07543ZM20.708 8.59758V27.1775H16.8852V8.59758H20.708ZM13.1345 18.8122L20.1482 25.8259L17.4451 28.529L10.4314 21.5153L13.1345 18.8122ZM8.40405 18.8122C9.71033 17.5059 11.8282 17.5059 13.1345 18.8122L10.4314 21.5153C10.618 21.7019 10.9206 21.7019 11.1072 21.5153L8.40405 18.8122ZM8.40405 23.5427C7.09778 22.2364 7.09777 20.1185 8.40405 18.8122L11.1072 21.5153C11.2938 21.3287 11.2938 21.0262 11.1072 20.8395L8.40405 23.5427ZM17.8648 33.0035L8.40405 23.5427L11.1072 20.8395L20.568 30.3003L17.8648 33.0035ZM22.5953 33.0035C21.289 34.3097 19.1711 34.3097 17.8648 33.0035L20.568 30.3003C20.3814 30.1137 20.0788 30.1137 19.8922 30.3003L22.5953 33.0035ZM32.0563 23.5427L22.5953 33.0035L19.8922 30.3003L29.3532 20.8395L32.0563 23.5427Z" fill="#9F9F9D" fill-opacity="0.8" mask="url(#path-1-inside-1_38_647)"/>
</g>
<defs>
<clipPath id="clip0_38_647">
<rect width="42" height="42" fill="white" transform="translate(42) rotate(90)"/>
</clipPath>
</defs>
</svg>
