<svg width="68" height="64" viewBox="0 0 68 64" fill="none" xmlns="http://www.w3.org/2000/svg">
<g clip-path="url(#clip0_106_1778)">
<path d="M42.9083 11.6056L55.5024 23.3001V39.8432L42.9083 51.5377H25.0927L12.4986 39.8432V23.3001L25.0927 11.6056H42.9083ZM44.5635 7.89307H23.4375L8.50049 21.7631V41.3802L23.4375 55.2502H44.5635L59.5005 41.3802V21.7631L44.5635 7.89307Z" fill="#373838"/>
<path d="M40.3688 15.7859H36.1108V47.3573H40.3688V15.7859Z" fill="#373838"/>
<path d="M31.9528 15.7859H27.6948V47.3573H31.9528V15.7859Z" fill="#373838"/>
<path d="M20.9943 21.7629H16.7363V41.38H20.9943V21.7629Z" fill="#373838"/>
<path d="M23.865 38.4656L16.7363 21.7629H20.9943L25.4482 34.0292L23.865 38.4656Z" fill="#373838"/>
<path d="M23.865 38.4658L22.2817 30.9665L27.6952 15.7859H31.9532L23.865 38.4658Z" fill="#373838"/>
<path d="M49.4674 38.7186L46.4565 35.9229L37.2345 44.4861L40.2454 47.2819L49.4674 38.7186Z" fill="#373838"/>
<path d="M40.2399 15.7843L37.229 18.5801L45.9845 26.7102L48.9954 23.9144L40.2399 15.7843Z" fill="#373838"/>
</g>
<defs>
<clipPath id="clip0_106_1778">
<rect width="68" height="63.1428" fill="white"/>
</clipPath>
</defs>
</svg>
