<svg width="72" height="67" viewBox="0 0 72 67" fill="none" xmlns="http://www.w3.org/2000/svg">
<g clip-path="url(#clip0_106_1797)">
<path d="M47.5893 40.5882C46.2823 42.4539 44.5173 43.9826 42.4498 45.0395C40.3823 46.0964 38.0758 46.6492 35.7333 46.6492C33.3908 46.6492 31.0842 46.0964 29.0168 45.0395C26.9493 43.9826 25.1843 42.4539 23.8772 40.5882H13.099C12.7305 40.5859 12.3626 40.5589 11.998 40.5076C13.6535 45.2952 16.8381 49.4607 21.0998 52.4129C25.3615 55.3651 30.4838 56.954 35.7396 56.954C40.9954 56.954 46.1177 55.3651 50.3794 52.4129C54.6411 49.4607 57.8257 45.2952 59.4811 40.5076C59.1165 40.5589 58.7487 40.5859 58.3802 40.5882H47.5893Z" fill="#373838"/>
<path d="M23.8776 25.2627C25.1847 23.397 26.9497 21.8684 29.0172 20.8114C31.0846 19.7545 33.3912 19.2017 35.7337 19.2017C38.0762 19.2017 40.3827 19.7545 42.4502 20.8114C44.5177 21.8684 46.2827 23.397 47.5897 25.2627H58.3638C58.7322 25.2671 59.0999 25.294 59.4647 25.3434C57.8093 20.5558 54.6247 16.3902 50.363 13.438C46.1013 10.4858 40.979 8.89697 35.7232 8.89697C30.4674 8.89697 25.3451 10.4858 21.0833 13.438C16.8216 16.3902 13.6371 20.5558 11.9816 25.3434C12.3464 25.294 12.7142 25.2671 13.0826 25.2627H23.8776Z" fill="#373838"/>
<path d="M15.9146 31.0059C15.7472 30.7739 15.5238 30.5844 15.2633 30.4534C14.9885 30.3209 14.6842 30.2545 14.3767 30.2598H14.0153H13.717V34.9421C13.7144 35.0352 13.7286 35.1279 13.759 35.2163C13.7878 35.2975 13.8385 35.3699 13.9061 35.4261C13.98 35.4901 14.0674 35.5383 14.1624 35.5672C14.2899 35.6067 14.4235 35.6244 14.5574 35.6196C14.8597 35.6276 15.1595 35.5653 15.4314 35.4382C15.6754 35.3136 15.8801 35.1283 16.0239 34.9018C16.1794 34.6528 16.2889 34.3799 16.3475 34.0952C16.4188 33.7309 16.4526 33.3608 16.4483 32.9901C16.4516 32.6152 16.4065 32.2413 16.3138 31.877C16.2372 31.5658 16.1019 31.2705 15.9146 31.0059Z" fill="#373838"/>
<path d="M35.7607 33.5264H37.6012L36.6768 31.3042L35.7607 33.5264Z" fill="#373838"/>
<path d="M58.3636 26.0696H13.0992C11.2046 26.0696 9.38763 26.7919 8.04796 28.0777C6.7083 29.3634 5.95569 31.1073 5.95569 32.9256C5.95569 34.744 6.7083 36.4879 8.04796 37.7736C9.38763 39.0594 11.2046 39.7817 13.0992 39.7817H58.3636C60.2582 39.7817 62.0751 39.0594 63.4148 37.7736C64.7544 36.4879 65.5071 34.744 65.5071 32.9256C65.5071 31.1073 64.7544 29.3634 63.4148 28.0777C62.0751 26.7919 60.2582 26.0696 58.3636 26.0696ZM17.9315 34.3412C17.7306 34.7147 17.4431 35.0389 17.0911 35.289C16.7173 35.5395 16.3006 35.7252 15.8599 35.8375C15.3887 35.9597 14.9025 36.0207 14.4144 36.0189H11.1746V35.6802C11.2713 35.6802 11.3889 35.6802 11.536 35.6519C11.6334 35.6478 11.7296 35.6301 11.8217 35.5995C11.9164 35.5694 11.9969 35.5079 12.0487 35.4261C12.0925 35.3438 12.1142 35.2523 12.1117 35.1599V30.7962C12.1142 30.7043 12.094 30.6131 12.0529 30.5301C12.0021 30.4413 11.9202 30.3727 11.8217 30.3365C11.7067 30.2879 11.585 30.2553 11.4604 30.2397C11.3301 30.2397 11.2335 30.2115 11.162 30.2034V29.8646H14.5741C14.9677 29.8671 15.3596 29.9131 15.7423 30.0017C16.1716 30.0977 16.579 30.2685 16.944 30.5059C17.3405 30.7535 17.6667 31.0916 17.8937 31.4899C18.1475 31.9515 18.2721 32.4685 18.2551 32.9902C18.2659 33.4593 18.1547 33.9237 17.9315 34.3412ZM25.5792 36.0189H19.5703V35.6802L19.9107 35.6439C20.0165 35.6359 20.1209 35.6156 20.2216 35.5834C20.3163 35.5533 20.3967 35.4918 20.4485 35.41C20.4924 35.3249 20.5126 35.2305 20.5074 35.1357V30.7962C20.5102 30.7077 20.493 30.6197 20.4569 30.5381C20.4046 30.4517 20.3208 30.3871 20.2216 30.3566C20.1152 30.3122 20.0038 30.2797 19.8897 30.2598C19.7468 30.2316 19.6417 30.2115 19.5703 30.2034V29.8646H25.2515V31.4334H24.9069C24.8034 31.1737 24.651 30.9345 24.4573 30.7277C24.2962 30.5297 24.0718 30.3879 23.8186 30.3244C23.6954 30.3007 23.5702 30.2885 23.4446 30.2881H23.0244H22.1125V32.6595H22.7723C22.9241 32.6602 23.0754 32.6412 23.2219 32.603C23.3637 32.5646 23.4917 32.4892 23.5917 32.3852C23.6869 32.2833 23.7598 32.1639 23.806 32.0344C23.8657 31.8938 23.9108 31.7479 23.9404 31.5988H24.285V34.1355H23.9404C23.913 33.9794 23.8679 33.8266 23.806 33.6798C23.7582 33.5424 23.6857 33.4141 23.5917 33.3007C23.4986 33.1986 23.3779 33.1232 23.2429 33.0829C23.0894 33.044 22.9311 33.025 22.7723 33.0265H22.1125V34.7969C22.108 34.9459 22.1221 35.0948 22.1546 35.2406C22.1785 35.3371 22.2345 35.4234 22.3142 35.4866C22.406 35.5486 22.5133 35.5862 22.6252 35.5955C22.8021 35.6176 22.9805 35.627 23.1589 35.6237H23.5454C23.6748 35.6217 23.8039 35.6123 23.932 35.5955C24.0513 35.5833 24.1694 35.5617 24.285 35.5309C24.3784 35.513 24.4645 35.4696 24.5329 35.4059C24.7198 35.2074 24.8833 34.9896 25.0204 34.7566C25.1566 34.5479 25.276 34.3295 25.3775 34.1033H25.7053L25.5792 36.0189ZM33.3656 31.627H33.0127C32.9009 31.3275 32.7498 31.0429 32.563 30.7801C32.3571 30.4817 32.168 30.3163 31.9958 30.2961C31.8991 30.2961 31.7773 30.2719 31.6386 30.2639H31.273H31.0629V35.1035C31.0611 35.1863 31.0768 35.2686 31.1091 35.3454C31.1586 35.4318 31.2393 35.4978 31.336 35.5309C31.4412 35.5669 31.5495 35.5938 31.6596 35.6116C31.8067 35.6398 31.9327 35.66 32.0336 35.6721V36.0109H28.4618V35.6721L28.8274 35.6358C28.9376 35.6299 29.0465 35.6095 29.151 35.5753C29.2508 35.5439 29.3348 35.4777 29.3863 35.3898C29.4268 35.3023 29.4469 35.2073 29.4451 35.1115V30.2518H29.235H28.8694C28.7266 30.2518 28.6089 30.2518 28.5123 30.284C28.34 30.284 28.1467 30.4696 27.9408 30.768C27.7552 31.0309 27.6055 31.3155 27.4954 31.6149H27.1424V29.8646H33.3656V31.627ZM40.9671 36.0189H37.4752V35.6802C37.6688 35.6639 37.8611 35.6356 38.0509 35.5955C38.2694 35.5525 38.3787 35.496 38.3787 35.4261C38.3803 35.4006 38.3803 35.375 38.3787 35.3495C38.3709 35.3092 38.3582 35.2699 38.3408 35.2325L37.7946 33.9581H35.5759C35.5213 34.075 35.4666 34.2162 35.4036 34.3614C35.3406 34.5066 35.2902 34.6639 35.2481 34.7647C35.2029 34.8797 35.1691 34.9985 35.1473 35.1196C35.1432 35.1692 35.1432 35.2191 35.1473 35.2688C35.1473 35.3616 35.2187 35.4422 35.3658 35.5068C35.5987 35.5907 35.8441 35.6383 36.0928 35.6479V35.9867H33.4497V35.6479C33.5628 35.6396 33.6751 35.6235 33.7858 35.5995C33.8893 35.583 33.989 35.5488 34.08 35.4987C34.2002 35.4331 34.307 35.347 34.3951 35.2446C34.4839 35.1353 34.556 35.0144 34.6094 34.8857C34.9568 34.0791 35.307 33.2644 35.6599 32.4417C36.0087 31.6351 36.3995 30.7277 36.8239 29.7477H37.7273C38.3156 31.1377 38.7779 32.2387 39.114 33.0507C39.446 33.8573 39.7317 34.5308 39.9544 35.0672C39.9918 35.1514 40.0413 35.2301 40.1015 35.3011C40.1756 35.3821 40.2638 35.4504 40.362 35.5027C40.4524 35.552 40.5502 35.5874 40.652 35.6076C40.7517 35.6285 40.8528 35.6433 40.9545 35.6519L40.9671 36.0189ZM45.9423 30.2034L45.602 30.2397C45.4866 30.2526 45.3727 30.2755 45.2616 30.3082C45.212 30.32 45.1655 30.3415 45.125 30.3713C45.0845 30.4012 45.0509 30.4387 45.0263 30.4817C44.9866 30.568 44.9666 30.6615 44.9675 30.7559V35.1115C44.9652 35.2034 44.9853 35.2946 45.0263 35.3777C45.0823 35.461 45.1648 35.5246 45.2616 35.5592C45.3641 35.5928 45.4696 35.6171 45.5768 35.6318C45.6975 35.6551 45.8196 35.6713 45.9423 35.6802V36.0189H42.3874V35.6802L42.7488 35.6519C42.8586 35.6487 42.9675 35.6311 43.0723 35.5995C43.1679 35.5712 43.2499 35.5112 43.3035 35.4301C43.3467 35.3463 43.367 35.2533 43.3623 35.1599V30.7962C43.3658 30.7068 43.3455 30.618 43.3035 30.5381C43.2522 30.4525 43.1699 30.3879 43.0723 30.3566C42.9689 30.3177 42.862 30.2881 42.753 30.2679C42.6324 30.2402 42.5104 30.2187 42.3874 30.2034V29.8646H45.9423V30.2034ZM53.4262 36.0189H47.5433V35.6802C47.6484 35.6802 47.7744 35.656 47.9131 35.6358C48.0086 35.6276 48.1029 35.61 48.1946 35.5834C48.2887 35.5543 48.369 35.4943 48.4215 35.414C48.4668 35.3279 48.4885 35.2321 48.4846 35.1357V30.7962C48.4874 30.7077 48.4702 30.6197 48.4342 30.5381C48.378 30.4533 48.2936 30.3894 48.1946 30.3566C48.0864 30.3124 47.9737 30.2786 47.8585 30.2558L47.5433 30.2034V29.8646H51.0646V30.2034L50.7201 30.2397C50.6048 30.2535 50.491 30.2764 50.3797 30.3082C50.3304 30.3206 50.2842 30.3424 50.2438 30.3722C50.2034 30.4019 50.1696 30.4392 50.1444 30.4817C50.1047 30.568 50.0847 30.6615 50.0856 30.7559V34.7889C50.0828 34.9405 50.0969 35.0919 50.1276 35.2406C50.1454 35.3383 50.2028 35.4253 50.2873 35.4826C50.3843 35.5464 50.4976 35.5841 50.615 35.5914C50.8077 35.61 51.0013 35.6181 51.1949 35.6156C51.4294 35.6146 51.6637 35.6012 51.8966 35.5753C52.0762 35.5656 52.2482 35.5021 52.3883 35.3938C52.5711 35.2061 52.7291 34.9975 52.8589 34.7728C53.0036 34.5347 53.1327 34.2882 53.2455 34.0347H53.5733L53.4262 36.0189ZM60.1032 34.9986C59.9784 35.2394 59.7989 35.4502 59.578 35.6156C59.3256 35.7978 59.0409 35.9345 58.7376 36.0189C58.3792 36.1216 58.0064 36.1705 57.6324 36.1641C56.9497 36.1709 56.2766 36.0083 55.6785 35.6923L55.3633 35.9988H54.9809L54.9221 33.7726H55.3087C55.406 34.0023 55.5183 34.2259 55.6449 34.442C55.7739 34.6697 55.932 34.881 56.1155 35.0712C56.2935 35.2693 56.5052 35.437 56.7416 35.5672C56.9857 35.6923 57.2592 35.7548 57.5358 35.7487C57.8767 35.7714 58.2137 35.6675 58.477 35.4584C58.5836 35.3677 58.6682 35.2557 58.7248 35.1303C58.7814 35.0049 58.8087 34.8691 58.8048 34.7324C58.8057 34.6185 58.7815 34.5057 58.7337 34.4014C58.6859 34.2972 58.6156 34.2038 58.5275 34.1275C58.272 33.938 57.9788 33.8008 57.666 33.7242L56.9685 33.5064C56.7584 33.4419 56.5483 33.3733 56.3718 33.3007C55.9827 33.1687 55.6472 32.9216 55.4137 32.5949C55.2042 32.29 55.0944 31.9318 55.0986 31.5665C55.099 31.3269 55.1534 31.0903 55.2583 30.8729C55.3733 30.6454 55.5348 30.4424 55.7331 30.276C55.9598 30.0972 56.2191 29.9604 56.4979 29.8727C56.8237 29.7654 57.1661 29.7122 57.5106 29.7154C57.8484 29.7129 58.1846 29.7619 58.5065 29.8606C58.7599 29.9313 59.005 30.0272 59.2376 30.1469L59.5149 29.8848H59.9099L59.9436 31.9819H59.557C59.4645 31.7561 59.3595 31.5262 59.2376 31.2923C59.1337 31.0819 59.004 30.8842 58.851 30.7035C58.7091 30.5399 58.5367 30.4031 58.3426 30.3002C58.1324 30.1962 57.8982 30.1449 57.6618 30.151C57.3723 30.14 57.089 30.2336 56.8677 30.4131C56.7686 30.4939 56.6893 30.5948 56.6355 30.7084C56.5818 30.822 56.5549 30.9457 56.5567 31.0705C56.5528 31.184 56.5749 31.297 56.6213 31.4015C56.6678 31.5061 56.7375 31.5995 56.8256 31.6754C57.0749 31.8624 57.3606 31.9996 57.666 32.0787L58.351 32.2965C58.5835 32.3691 58.7894 32.4377 58.9687 32.5022C59.359 32.6342 59.7037 32.8673 59.9646 33.1757C60.1995 33.4822 60.3195 33.8561 60.3049 34.2364C60.3003 34.502 60.2313 34.763 60.1032 34.9986Z" fill="#373838"/>
</g>
<defs>
<clipPath id="clip0_106_1797">
<rect width="59.5556" height="48.0166" fill="white" transform="translate(5.95575 8.93335)"/>
</clipPath>
</defs>
</svg>
